<svg xmlns="http://www.w3.org/2000/svg" viewBox="0 0 297 346">
  <g>
    <path d="M0 0 C3.10632685 1.37157519 5.12070341 2.91202803 7.43359375 5.38671875 C8.07562744 6.06968018 8.71766113 6.7526416 9.37915039 7.45629883 C10.05840576 8.19259521 10.73766113 8.9288916 11.4375 9.6875 C12.5037561 10.83545044 12.5037561 10.83545044 13.59155273 12.0065918 C15.73783913 14.32867338 17.87171643 16.66141573 20 19 C20.58555664 19.64227539 21.17111328 20.28455078 21.77441406 20.94628906 C30.56474183 30.65805678 38.564111 40.9115212 46.18212891 51.56347656 C47.86716207 53.82195507 49.64565864 55.9144365 51.51171875 58.0234375 C67.48471056 77.42543315 63.18343631 110.22121938 63 134 C61.35 134.33 59.7 134.66 58 135 C54.76096281 127.50831992 51.88881059 119.95074516 49.20898438 112.24267578 C44.45028363 98.60845919 38.98896705 86.09620945 31 74 C30.30342285 72.92226318 30.30342285 72.92226318 29.59277344 71.82275391 C24.02682322 63.2430359 18.14897377 55.34314343 11 48 C1.35071066 64.54163886 2.20976398 83.48290404 2 102 C2.66 102 3.32 102 4 102 C4.50790159 105.51973999 5.00488523 109.04094042 5.5 112.5625 C5.64308594 113.55314453 5.78617188 114.54378906 5.93359375 115.56445312 C6.32548911 118.37303654 6.66950453 121.18362689 7 124 C7.15210938 125.13824219 7.30421875 126.27648437 7.4609375 127.44921875 C6.70347333 133.28426052 3.83585193 138.0840014 1.125 143.25 C0.24122681 144.97404053 0.24122681 144.97404053 -0.66040039 146.73291016 C-2.42450511 150.16373701 -4.20845974 153.58343271 -6 157 C-6.49516113 157.9477832 -6.99032227 158.89556641 -7.50048828 159.87207031 C-10.95925007 166.48574233 -14.42308616 173.09712167 -17.984375 179.65625 C-18.82742187 181.24953125 -18.82742187 181.24953125 -19.6875 182.875 C-20.16574219 183.75929687 -20.64398437 184.64359375 -21.13671875 185.5546875 C-23.1307525 191.20294601 -19.41202003 196.96585377 -17.10546875 202.09765625 C-16.71684158 202.96893661 -16.32821442 203.84021698 -15.92781067 204.73789978 C-15.10585792 206.57558062 -14.28114408 208.41202865 -13.45385742 210.24731445 C-12.19241649 213.05157037 -10.94642559 215.86235366 -9.70117188 218.67382812 C-8.89937265 220.46135726 -8.09666831 222.24848073 -7.29296875 224.03515625 C-6.92302292 224.87377701 -6.55307709 225.71239777 -6.17192078 226.57643127 C-3.13273352 233.25696515 0.03437206 236.6691291 6.48046875 240.3203125 C7.55506348 240.93382568 8.6296582 241.54733887 9.73681641 242.17944336 C11.44490479 243.1424939 11.44490479 243.1424939 13.1875 244.125 C14.35898047 244.79166286 15.53003971 245.45906646 16.70068359 246.12719727 C18.45967596 247.13107633 20.21887214 248.13456694 21.97943115 249.13569641 C27.05567372 252.02311977 32.09742464 254.96635788 37.125 257.9375 C39.39375 259.278125 41.6625 260.61875 44 262 C44.33 252.43 44.66 242.86 45 233 C43.35 232.34 41.7 231.68 40 231 C38.03896023 229.83025698 36.10148617 228.62024401 34.1875 227.375 C33.21167969 226.74335938 32.23585938 226.11171875 31.23046875 225.4609375 C30.49441406 224.97882813 29.75835937 224.49671875 29 224 C28.87625 225.11375 28.7525 226.2275 28.625 227.375 C28 231 28 231 26 233 C23.625 233.4375 23.625 233.4375 21 233 C16.76826117 228.8293465 15.4296858 224.0352613 13.765625 218.5 C13.48273621 217.58669922 13.19984741 216.67339844 12.90838623 215.73242188 C12.31490765 213.80763536 11.72689829 211.88115498 11.14404297 209.953125 C10.25180758 207.00597066 9.34021317 204.06533347 8.42578125 201.125 C7.85040576 199.25035464 7.27614877 197.37536555 6.703125 195.5 C6.43131409 194.62279297 6.15950317 193.74558594 5.87945557 192.84179688 C4.6686914 188.80677075 3.62199609 185.26510769 4 181 C6.046875 180.22265625 6.046875 180.22265625 9 180 C11.61108384 181.36989962 13.85145921 182.75636578 16.25 184.4375 C17.76590675 185.45984788 19.28290314 186.48058129 20.80078125 187.5 C21.62787598 188.06074219 22.4549707 188.62148437 23.30712891 189.19921875 C28.29346653 192.53369076 33.37334855 195.72299615 38.4375 198.9375 C41.47094007 200.86387995 44.48445761 202.79252681 47.44897461 204.82397461 C50.11589752 206.57735353 52.79426006 207.76205466 55.75610352 208.94360352 C61.19949167 211.37559374 65.7479868 213.85453863 69 219 C71.77422742 229.4843229 70.68785689 240.89979419 70.17492676 251.63214111 C69.87992066 258.00936575 69.70816665 264.38809859 69.59481621 270.77087212 C69.53657807 272.98119362 69.41677287 275.18165599 69.28956604 277.38893127 C69.00449072 284.70932425 69.61394427 289.4605304 74.35498047 295.30224609 C75.87196346 296.89855996 77.41678583 298.46935039 79 300 C79.93582341 301.03630008 80.86587878 302.07790091 81.78515625 303.12890625 C82.53667969 303.93199219 83.28820312 304.73507812 84.0625 305.5625 C88.62764598 310.52057717 92.86734167 315.67833662 97 321 C103.91015065 313.68399815 110.71034111 306.36207361 117 298.5 C119 296 119 296 121.60163879 293.28276062 C124.40673445 289.90189088 124.54702085 287.39437806 124.3737793 282.97583008 C124.35534973 282.30011963 124.33692017 281.62440918 124.31793213 280.92822266 C124.27677609 279.46946505 124.22500972 278.01097544 124.16367149 276.55292702 C124.07284377 274.23443324 124.02514946 271.91878146 123.99067688 269.59880066 C123.89087522 263.00801106 123.76108109 256.42091538 123.48950195 249.8347168 C122.42210583 222.82716863 122.42210583 222.82716863 126.71331787 216.45639038 C130.84801142 212.61479579 135.44204294 210.59384513 140.74943542 208.84182739 C144.30031383 207.51361547 147.19910192 205.39768557 150.25 203.1875 C157.58674249 198.19814853 165.08428576 193.46488003 172.58886719 188.7331543 C173.4915332 188.16250244 174.39419922 187.59185059 175.32421875 187.00390625 C176.5321106 186.24315796 176.5321106 186.24315796 177.7644043 185.46704102 C180.0255891 184.03397682 180.0255891 184.03397682 182.08911133 182.32397461 C184.74720231 180.48229486 186.84730158 180.78504329 190 181 C190.34848082 187.04356562 189.10907264 191.97604123 187.33203125 197.73046875 C187.05534103 198.64331131 186.77865082 199.55615387 186.49357605 200.49665833 C185.90764696 202.41690071 185.31650748 204.33556012 184.72045898 206.25268555 C183.81389987 209.18297516 182.93658726 212.12101017 182.06054688 215.06054688 C181.48613692 216.93022971 180.91002249 218.79938992 180.33203125 220.66796875 C180.07347855 221.54406296 179.81492584 222.42015717 179.54853821 223.32279968 C177.98100146 228.25641149 176.68108627 231.2675224 172 234 C169.828125 234.00390625 169.828125 234.00390625 168 233 C166.734375 231.15234375 166.734375 231.15234375 165.75 228.9375 C165.41484375 228.20402344 165.0796875 227.47054687 164.734375 226.71484375 C164.49203125 226.14894531 164.2496875 225.58304688 164 225 C163.15695313 225.5775 162.31390625 226.155 161.4453125 226.75 C160.33870565 227.50024193 159.23192581 228.25022874 158.125 229 C157.03445312 229.7425 155.94390625 230.485 154.8203125 231.25 C152 233 152 233 150 233 C150.33 242.57 150.66 252.14 151 262 C152.81242188 260.97261719 154.62484375 259.94523437 156.4921875 258.88671875 C157.11212585 258.53587219 157.73206421 258.18502563 158.37078857 257.82354736 C161.51165853 256.04267719 164.64080336 254.24434927 167.75488281 252.41699219 C178.79878009 245.95822861 178.79878009 245.95822861 184.3046875 243.75390625 C198.9423129 237.46371714 203.20754633 223.68591683 208.83395386 209.75495911 C209.96324485 206.90744661 211.07268988 204.05442778 212.129776 201.17927551 C213 199 213 199 214.22850037 196.57695007 C216.56642196 191.82514676 216.56642196 191.82514676 216.59143066 186.66438293 C215.5996948 184.19802248 214.43047442 181.96122334 213.11328125 179.65234375 C212.66284958 178.79677383 212.21241791 177.94120392 211.74833679 177.05970764 C210.30285994 174.33297777 208.8094842 171.63623052 207.3125 168.9375 C206.35540806 167.15346765 205.4016008 165.36766904 204.45117188 163.58007812 C201.22179277 157.53114154 197.93510609 151.51407589 194.62750244 145.50759888 C193.34629254 143.17611762 192.07656807 140.83869824 190.80859375 138.5 C190.42512283 137.81127304 190.04165192 137.12254608 189.64656067 136.41294861 C186.54064313 130.65646173 186.3148001 127.1612335 188 121 C190.51776766 109.61253306 191.34553641 98.44918441 191.4375 86.8125 C191.45528 85.80700104 191.45528 85.80700104 191.47341919 84.78118896 C191.67528327 71.66663883 189.5729194 59.50260895 183 48 C174.95344185 57.05892338 168.30334938 66.66775396 162 77 C161.58830566 77.6707959 161.17661133 78.3415918 160.75244141 79.03271484 C153.43242675 91.08798482 148.59894821 103.67447342 143.89453125 116.92578125 C143.5375415 117.92464355 143.18055176 118.92350586 142.81274414 119.95263672 C142.11653208 121.90804419 141.42917407 123.86663197 140.75170898 125.82861328 C140.27906616 127.16448486 140.27906616 127.16448486 139.796875 128.52734375 C139.52198242 129.31874756 139.24708984 130.11015137 138.96386719 130.92553711 C137.94061445 133.12781131 136.81180598 134.4065415 135 136 C133.68 135.34 132.36 134.68 131 134 C130.73193741 123.68365201 131.4485315 113.44763807 132.171875 103.16259766 C132.37548735 100.24301198 132.5669339 97.32278629 132.7578125 94.40234375 C132.88728326 92.52338653 133.01746681 90.64447826 133.1484375 88.765625 C133.20373627 87.90398743 133.25903503 87.04234985 133.31600952 86.15460205 C133.78698938 79.69610568 134.41177314 72.92856316 137.92578125 67.31640625 C138.30355713 66.70756592 138.68133301 66.09872559 139.07055664 65.47143555 C139.48039795 64.84148682 139.89023926 64.21153809 140.3125 63.5625 C140.74618896 62.88292236 141.17987793 62.20334473 141.62670898 61.50317383 C146.9483923 53.31906285 152.93192969 45.63818598 159 38 C159.80566406 36.9790625 160.61132812 35.958125 161.44140625 34.90625 C166.16114435 29.02979612 171.1600628 23.45410572 176.28515625 17.93359375 C179.57508204 14.37858042 182.80382135 10.77141531 186.02734375 7.15625 C187.96194032 5.04160187 189.95769408 3.0103235 192 1 C199.08228637 3.74302995 202.48096543 12.64848714 205.625 19.125 C214.4527587 39.59726936 217.17549706 62.00357551 217.1875 84.125 C217.20478149 85.80879761 217.20478149 85.80879761 217.22241211 87.52661133 C217.22920851 93.25917311 216.98331368 98.72230501 216.0234375 104.37890625 C213.13485494 122.33435774 218.34553183 133.80949775 226.8162384 149.12475586 C230.34054574 155.51306543 233.4018947 162.08295717 236.41525269 168.72418213 C237.727861 171.61486687 239.05958831 174.49667104 240.390625 177.37890625 C240.82407227 178.3232251 241.25751953 179.26754395 241.70410156 180.24047852 C242.99667506 183.08534897 242.99667506 183.08534897 244.72558594 186.03881836 C246.20253125 189.47059417 245.96206429 190.48286099 245 194 C244.35556366 195.53630936 243.65238181 197.04888871 242.90209961 198.53637695 C242.46751938 199.40531082 242.03293915 200.27424469 241.58518982 201.16950989 C241.11235062 202.09970444 240.63951141 203.02989899 240.15234375 203.98828125 C239.4171627 205.45227608 239.4171627 205.45227608 238.66712952 206.94584656 C237.0962065 210.0709308 235.51703265 213.19176 233.9375 216.3125 C232.38952587 219.38595075 230.84320344 222.46022801 229.2971344 225.53463745 C228.28733318 227.53866722 227.27460464 229.54122474 226.25889587 231.54226685 C224.016931 235.96200805 221.79982141 240.38538768 219.69555664 244.87255859 C219.346548 245.6059697 218.99753937 246.3393808 218.63795471 247.09501648 C218.0123458 248.41604244 217.39914812 249.74306904 216.80259705 251.07746887 C213.94060539 257.07213705 209.36069675 260.17787712 203.640625 263.32421875 C197.88726912 266.59525937 192.37069152 270.2232386 186.8125 273.8125 C184.6595719 275.18862353 182.50592617 276.56362499 180.3515625 277.9375 C174.44976816 281.70804095 168.56250993 285.50037073 162.6875 289.3125 C161.86419189 289.84528564 161.04088379 290.37807129 160.19262695 290.92700195 C159.43167725 291.42159912 158.67072754 291.91619629 157.88671875 292.42578125 C157.22889404 292.85286377 156.57106934 293.27994629 155.89331055 293.7199707 C154.51981508 294.64856344 153.18670532 295.63779178 151.88208008 296.66088867 C150 298 150 298 148 298 C146.98246262 300.9689186 146.03038823 303.85843993 145.37109375 306.9296875 C144.19082321 310.65321881 142.9702193 313.45532836 140 316 C133.07030454 319.47290552 125.42111344 321.27516528 117.95068359 323.21435547 C114.32219172 324.1804722 110.80476756 325.35576072 107.25 326.5625 C103.25004369 327.90885401 101.08172694 327.92266582 97 327 C95.95739014 327.02658691 94.91478027 327.05317383 93.84057617 327.08056641 C87.29577815 326.94327168 81.19802576 324.95730049 74.95776367 323.12426758 C73.36950411 322.6688834 71.77414355 322.23753176 70.17260742 321.83129883 C56.22126001 318.28273833 56.22126001 318.28273833 52.12060547 312.35595703 C49.50492312 307.87898909 47 303.26675864 47 298 C46.48824219 297.76152344 45.97648437 297.52304687 45.44921875 297.27734375 C42.1282899 295.54537607 38.98036011 293.5556264 35.8125 291.5625 C34.75953735 290.90205688 34.75953735 290.90205688 33.68530273 290.22827148 C26.46745039 285.68778999 19.31171664 281.05269969 12.16308594 276.40429688 C9.23542947 274.50363322 6.302169 272.6117414 3.3671875 270.72241211 C1.92050277 269.78663653 0.47773272 268.84477949 -0.9609375 267.89672852 C-4.05806818 265.85954169 -7.10630139 263.94341231 -10.3828125 262.19921875 C-17.17689883 258.41989963 -20.3025923 254.36480152 -23.65625 247.57421875 C-24.07954086 246.74327194 -24.50283173 245.91232513 -24.93894958 245.05619812 C-25.84060721 243.28355992 -26.73678933 241.50812755 -27.62789917 239.73016357 C-28.98743403 237.02500338 -30.36804389 234.33173422 -31.75610352 231.64111328 C-34.08314409 227.12555711 -36.38378405 222.59729505 -38.67163086 218.06176758 C-39.61009679 216.20674478 -40.55357817 214.35425197 -41.50170898 212.50415039 C-42.89950878 209.77543004 -44.28140098 207.03916363 -45.66015625 204.30078125 C-46.08297379 203.48297684 -46.50579132 202.66517242 -46.94142151 201.82258606 C-49.63339441 196.41939466 -52.18736639 191.09778 -50.41041565 184.96525574 C-49.48771834 182.74117905 -48.44283302 180.6303133 -47.328125 178.49609375 C-46.73723839 177.30689583 -46.73723839 177.30689583 -46.13441467 176.09367371 C-45.29205576 174.40457337 -44.44064854 172.71995984 -43.58096313 171.03961182 C-42.24134616 168.42058122 -40.92659985 165.79037181 -39.61791992 163.15576172 C-37.09884068 158.09354426 -34.55295291 153.045201 -32 148 C-29.75004807 143.55176574 -27.5209121 139.09402442 -25.3125 134.625 C-24.86229492 133.75544678 -24.41208984 132.88589355 -23.94824219 131.98999023 C-20.3847989 124.77178864 -20.64363195 119.14921491 -21.50805664 111.30859375 C-22.00523985 106.37598981 -22.17694341 101.4942693 -22.203125 96.5390625 C-22.20882507 95.66841156 -22.21452515 94.79776062 -22.22039795 93.90072632 C-22.22977612 92.06713039 -22.23635302 90.23351815 -22.24023438 88.39990234 C-22.24985563 85.66602138 -22.28091362 82.93292146 -22.3125 80.19921875 C-22.47385076 53.21896951 -17.69678835 25.49333588 -2 3 C-1.34 2.01 -0.68 1.02 0 0 Z" fill="#FF0000" transform="translate(51,0)"/>
    <path d="M0 0 C4.93893685 1.26115506 7.12585074 2.76780669 10.1875 6.8125 C11.37472656 8.28396484 11.37472656 8.28396484 12.5859375 9.78515625 C14.25691656 11.93592795 15.61615011 14.0186543 17.0390625 16.37109375 C22.16667861 24.30922505 27.11300337 26.72771833 36.32885742 28.90527344 C38.8129201 29.41713509 41.30722994 29.88207094 43.80981445 30.29394531 C53.162977 32.00927762 57.47388273 35.33142851 63 43 C63.86069092 44.14601685 63.86069092 44.14601685 64.73876953 45.31518555 C65.15497559 45.87117432 65.57118164 46.42716309 66 47 C66.61359375 46.07058594 67.2271875 45.14117187 67.859375 44.18359375 C74.93933176 34.64861554 81.39840299 31.77822792 93 29.5625 C104.62989972 27.28267828 110.87105686 24.45835675 117.6484375 14.68359375 C118.43432007 13.45702643 119.21832966 12.22925599 120 11 C121.29273181 9.21468451 122.60182952 7.44092274 123.9375 5.6875 C124.453125 5.00171875 124.96875 4.3159375 125.5 3.609375 C127.67141847 1.27962393 129.90838072 0.52783744 133 0 C134.53064071 1.53064071 134.27308146 2.9324149 134.36328125 5.0625 C134.29136964 10.49772976 132.30813112 13.68751526 129.1875 18 C124.5590517 24.4534261 124.5590517 24.4534261 121.0859375 31.5625 C118.63319123 37.24942585 116.07285897 42.13790641 110.18481445 44.82989502 C97.06273107 49.81885052 82.06390587 53.3283293 68 53 C65.77912269 53 63.55816656 53.03979726 61.33813477 53.10107422 C56.93260358 53.09592632 52.87306104 52.36160045 48.58984375 51.3828125 C47.81870743 51.20676483 47.04757111 51.03071716 46.25306702 50.84933472 C44.63412173 50.47316365 43.01648108 50.09133661 41.40014648 49.70410156 C39.76058316 49.31855143 38.11685369 48.95030113 36.46948242 48.59960938 C21.03348607 45.31135883 21.03348607 45.31135883 16.87109375 39.4609375 C15.87903506 37.65947533 14.92352289 35.83753963 14 34 C12.70560976 31.93810112 11.3949582 29.88634317 10.0703125 27.84375 C8.75240434 25.73091311 7.43732081 23.61631182 6.125 21.5 C5.44953125 20.4171875 4.7740625 19.334375 4.078125 18.21875 C-2.36661012 7.86576186 -2.36661012 7.86576186 -2 2 C-1.34 1.34 -0.68 0.68 0 0 Z" fill="#FF0000" transform="translate(82,293)"/>
  </g>
</svg>
